ffmpeg version n4.3.1-29-g89daac5fe2 Copyright (c) 2000-2021 the FFmpeg developers
  built with gcc 9.3-win32 (GCC) 20200320
  configuration: --prefix=/ffbuild/prefix --pkg-config-flags=--static --pkg-config=pkg-config --cross-prefix=x86_64-w64-mingw32- --arch=x86_64 --target-os=mingw32 --enable-version3 --disable-debug --disable-w32threads --enable-pthreads --enable-iconv --enable-zlib --enable-libxml2 --enable-libfreetype --enable-libfribidi --enable-gmp --enable-lzma --enable-fontconfig --enable-opencl --enable-libvmaf --disable-vulkan --enable-libvorbis --enable-amf --enable-libaom --disable-avisynth --enable-libdav1d --disable-libdavs2 --enable-ffnvcodec --enable-cuda-llvm --disable-libglslang --enable-libass --enable-libbluray --enable-libmp3lame --enable-libopus --enable-libtheora --enable-libvpx --enable-libwebp --enable-libmfx --enable-libopencore-amrnb --enable-libopencore-amrwb --enable-libopenjpeg --enable-librav1e --disable-librubberband --enable-schannel --enable-sdl2 --enable-libsoxr --enable-libsrt --enable-libtwolame --disable-libvidstab --disable-libx264 --disable-libx265 --disable-libxavs2 --disable-libxvid --enable-libzimg --extra-cflags=-DLIBTWOLAME_STATIC --extra-cxxflags= --extra-ldflags=-pthread --extra-libs=-lgomp
  libavutil      56. 51.100 / 56. 51.100
  libavcodec     58. 91.100 / 58. 91.100
  libavformat    58. 45.100 / 58. 45.100
  libavdevice    58. 10.100 / 58. 10.100
  libavfilter     7. 85.100 /  7. 85.100
  libswscale      5.  7.100 /  5.  7.100
  libswresample   3.  7.100 /  3.  7.100
Splitting the commandline.
Reading option '-v' ... matched as option 'v' (set logging level) with argument 'debug'.
Reading option '-nostdin' ... matched as option 'stdin' (enable or disable interaction on standard input) with argument 0.
Reading option '-progress' ... matched as option 'progress' (write program-readable progress information) with argument 'C:/Users/MRem/AppData/Local/Temp/KritaFFmpegProgress.NsQKfd'.
Reading option '-r' ... matched as option 'r' (set frame rate (Hz value, fraction or abbreviation)) with argument '3'.
Reading option '-start_number' ... matched as AVOption 'start_number' with argument '0'.
Reading option '-i' ... matched as input url with argument 'C:/Users/MRem/Documents/GitHub/Game/Game/ComandWork/Game/nya/img/frame%04d.png'.
Reading option '-vf' ... matched as option 'vf' (set video filters) with argument 'palettegen'.
Reading option '-y' ... matched as option 'y' (overwrite output files) with argument '1'.
Reading option 'C:/Users/MRem/Documents/GitHub/Game/Game/ComandWork/Game/nya/img/palette.png' ... matched as output url.
Finished splitting the commandline.
Parsing a group of options: global .
Applying option v (set logging level) with argument debug.
Applying option nostdin (enable or disable interaction on standard input) with argument 0.
Applying option progress (write program-readable progress information) with argument C:/Users/MRem/AppData/Local/Temp/KritaFFmpegProgress.NsQKfd.
[file @ 0000029720f45640] Setting default whitelist 'file,crypto,data'
Applying option y (overwrite output files) with argument 1.
Successfully parsed a group of options.
Parsing a group of options: input url C:/Users/MRem/Documents/GitHub/Game/Game/ComandWork/Game/nya/img/frame%04d.png.
Applying option r (set frame rate (Hz value, fraction or abbreviation)) with argument 3.
Successfully parsed a group of options.
Opening an input file: C:/Users/MRem/Documents/GitHub/Game/Game/ComandWork/Game/nya/img/frame%04d.png.
[image2 @ 0000029720f859c0] Opening 'C:/Users/MRem/Documents/GitHub/Game/Game/ComandWork/Game/nya/img/frame0000.png' for reading
[file @ 00000297210691c0] Setting default whitelist 'file,crypto,data'
[AVIOContext @ 00000297210692c0] Statistics: 3476 bytes read, 0 seeks
[image2 @ 0000029720f859c0] Opening 'C:/Users/MRem/Documents/GitHub/Game/Game/ComandWork/Game/nya/img/frame0001.png' for reading
[file @ 0000029721069e80] Setting default whitelist 'file,crypto,data'
[AVIOContext @ 0000029721069300] Statistics: 3487 bytes read, 0 seeks
[image2 @ 0000029720f859c0] Opening 'C:/Users/MRem/Documents/GitHub/Game/Game/ComandWork/Game/nya/img/frame0002.png' for reading
[file @ 0000029720f99e80] Setting default whitelist 'file,crypto,data'
[AVIOContext @ 0000029721069280] Statistics: 3489 bytes read, 0 seeks
Input #0, image2, from 'C:/Users/MRem/Documents/GitHub/Game/Game/ComandWork/Game/nya/img/frame%04d.png':
  Duration: 00:00:00.12, start: 0.000000, bitrate: N/A
    Stream #0:0, 3, 1/25: Video: png, 1 reference frame, rgba(pc), 45x30 [SAR 196:196 DAR 3:2], 0/1, 25 fps, 25 tbr, 25 tbn, 25 tbc
Successfully opened the file.
Parsing a group of options: output url C:/Users/MRem/Documents/GitHub/Game/Game/ComandWork/Game/nya/img/palette.png.
Applying option vf (set video filters) with argument palettegen.
Successfully parsed a group of options.
Opening an output file: C:/Users/MRem/Documents/GitHub/Game/Game/ComandWork/Game/nya/img/palette.png.
Successfully opened the file.
detected 4 logical cores
Stream mapping:
  Stream #0:0 -> #0:0 (png (native) -> png (native))
cur_dts is invalid st:0 (0) [init:0 i_done:0 finish:0] (this is harmless if it occurs once at the start per stream)
    Last message repeated 3 times
[graph 0 input from stream 0:0 @ 0000029722bd21c0] Setting 'video_size' to value '45x30'
[graph 0 input from stream 0:0 @ 0000029722bd21c0] Setting 'pix_fmt' to value '26'
[graph 0 input from stream 0:0 @ 0000029722bd21c0] Setting 'time_base' to value '1/3'
[graph 0 input from stream 0:0 @ 0000029722bd21c0] Setting 'pixel_aspect' to value '196/196'
[graph 0 input from stream 0:0 @ 0000029722bd21c0] Setting 'frame_rate' to value '3/1'
[graph 0 input from stream 0:0 @ 0000029722bd21c0] w:45 h:30 pixfmt:rgba tb:1/3 fr:3/1 sar:196/196
[format @ 0000029722bd2600] Setting 'pix_fmts' to value 'rgb24|rgba|rgb48be|rgba64be|pal8|gray|ya8|gray16be|ya16be|monob'
[auto_scaler_0 @ 0000029722bd3e40] Setting 'flags' to value 'bicubic'
[auto_scaler_0 @ 0000029722bd3e40] w:iw h:ih flags:'bicubic' interl:0
[Parsed_palettegen_0 @ 0000029720fb6bc0] auto-inserting filter 'auto_scaler_0' between the filter 'graph 0 input from stream 0:0' and the filter 'Parsed_palettegen_0'
[auto_scaler_1 @ 0000029720fb5600] Setting 'flags' to value 'bicubic'
[auto_scaler_1 @ 0000029720fb5600] w:iw h:ih flags:'bicubic' interl:0
[format @ 0000029722bd2600] auto-inserting filter 'auto_scaler_1' between the filter 'Parsed_palettegen_0' and the filter 'format'
[AVFilterGraph @ 0000029720f98f80] query_formats: 4 queried, 1 merged, 2 already done, 0 delayed
[auto_scaler_1 @ 0000029720fb5600] picking rgba out of 10 ref:bgra alpha:1
[swscaler @ 0000029720fc3fc0] Forcing full internal H chroma due to odd output size
[swscaler @ 0000029720fc3fc0] Forcing full internal H chroma due to input having non subsampled chroma
[auto_scaler_0 @ 0000029722bd3e40] w:45 h:30 fmt:rgba sar:196/196 -> w:45 h:30 fmt:bgra sar:1/1 flags:0x4
[swscaler @ 0000029720fd7f80] Forcing full internal H chroma due to input having non subsampled chroma
[auto_scaler_1 @ 0000029720fb5600] w:16 h:16 fmt:bgra sar:1/1 -> w:16 h:16 fmt:rgba sar:1/1 flags:0x4
Output #0, image2, to 'C:/Users/MRem/Documents/GitHub/Game/Game/ComandWork/Game/nya/img/palette.png':
  Metadata:
    encoder         : Lavf58.45.100
    Stream #0:0, 0, 1/3: Video: png, 1 reference frame, rgba, 16x16 [SAR 1:1 DAR 1:1], 0/1, q=2-31, 200 kb/s, 3 fps, 3 tbn, 3 tbc
    Metadata:
      encoder         : Lavc58.91.100 png
cur_dts is invalid st:0 (0) [init:1 i_done:0 finish:0] (this is harmless if it occurs once at the start per stream)
    Last message repeated 2 times
[Parsed_palettegen_0 @ 0000029720fb6bc0] 255(+1) colors generated out of 753 colors; ratio=0.338645
[Parsed_palettegen_0 @ 0000029720fb6bc0] Dupped color: FFC4E264
[Parsed_palettegen_0 @ 0000029720fb6bc0] Dupped color: FFC8E666
[Parsed_palettegen_0 @ 0000029720fb6bc0] Dupped color: FFD0E465
[Parsed_palettegen_0 @ 0000029720fb6bc0] Dupped color: FFD5E467
[Parsed_palettegen_0 @ 0000029720fb6bc0] Dupped color: FFD6DE63
cur_dts is invalid st:0 (0) [init:1 i_done:0 finish:0] (this is harmless if it occurs once at the start per stream)
Clipping frame in rate conversion by 0.000008
cur_dts is invalid st:0 (0) [init:1 i_done:0 finish:0] (this is harmless if it occurs once at the start per stream)
[out_0_0 @ 0000029722bd2500] EOF on sink link out_0_0:default.
No more output streams to write to, finishing.
[image2 @ 0000029720f8f940] Opening 'C:/Users/MRem/Documents/GitHub/Game/Game/ComandWork/Game/nya/img/palette.png' for writing
[file @ 0000029720fb5700] Setting default whitelist 'file,crypto,data'
[AVIOContext @ 0000029720fc28c0] Statistics: 0 seeks, 1 writeouts
frame=    1 fps=0.0 q=-0.0 Lsize=N/A time=00:00:00.33 bitrate=N/A speed= 2.5x    
[AVIOContext @ 0000029720f85800] Statistics: 0 seeks, 1 writeouts
video:1kB audio:0kB subtitle:0kB other streams:0kB global headers:0kB muxing overhead: unknown
Input file #0 (C:/Users/MRem/Documents/GitHub/Game/Game/ComandWork/Game/nya/img/frame%04d.png):
  Input stream #0:0 (video): 3 packets read (10452 bytes); 3 frames decoded; 
  Total: 3 packets (10452 bytes) demuxed
Output file #0 (C:/Users/MRem/Documents/GitHub/Game/Game/ComandWork/Game/nya/img/palette.png):
  Output stream #0:0 (video): 1 frames encoded; 1 packets muxed (731 bytes); 
  Total: 1 packets (731 bytes) muxed
3 frames successfully decoded, 0 decoding errors
